<svg width="512" height="512" viewBox="0 0 1416 1416" fill="none" xmlns="http://www.w3.org/2000/svg">
  <g transform="translate(106 410) scale(0.85)">
    <path d="M532.76 298.765L620.26 223.765M532.76 298.765C392.76 298.765 332.76 183.765 314.01 123.765M532.76 298.765L576.51 386.265M882.76 298.765L795.26 223.765M882.76 298.765C1022.76 298.765 1082.76 183.765 1101.51 123.765M882.76 298.765L839.01 386.265M795.26 223.765L707.76 148.765L620.26 223.765M795.26 223.765L1101.51 123.765M620.26 223.765L314.01 123.765M7.76007 23.7651L160.885 73.7651M1407.76 23.7651L1254.64 73.7651M1101.51 123.765L1254.64 73.7651M314.01 123.765L160.885 73.7651M1254.64 73.7651C1232.76 183.765 1122.76 398.765 839.01 386.265M160.885 73.7651C182.76 183.765 292.76 398.765 576.51 386.265M576.51 386.265L620.26 473.765L707.76 648.765L795.26 473.765L839.01 386.265" stroke="black" stroke-width="50"/>
    <path d="M1072.76 123.765L792.76 223.765L882.76 298.765C1042.76 283.765 1076.09 172.765 1072.76 123.765Z" fill="black"/>
    <path d="M332.76 123.765L622.76 223.765L532.76 298.765C372.76 283.765 342.76 183.765 332.76 123.765Z" fill="black"/>
  </g>
</svg>
